<?xml version="1.0" encoding="utf-8"?>
<!-- Generator: Adobe Illustrator 17.0.1, SVG Export Plug-In . SVG Version: 6.00 Build 0)  -->
<!DOCTYPE svg PUBLIC "-//W3C//DTD SVG 1.1//EN" "http://www.w3.org/Graphics/SVG/1.1/DTD/svg11.dtd">
<svg version="1.1" id="Layer_1" xmlns="http://www.w3.org/2000/svg" xmlns:xlink="http://www.w3.org/1999/xlink" x="0px" y="0px"
	 width="612px" height="792px" viewBox="0 0 612 792" enable-background="new 0 0 612 792" xml:space="preserve">
<text transform="matrix(1 0 0 1 178.5 465.5)" fill="#4E4D4D" font-family="'AvenirLTStd-Black'" font-size="72">e</text>
<text transform="matrix(0.9995 0.0309 -0.0309 0.9995 163.834 432.1752)" fill="#EB5F53" font-family="'AvenirLTStd-Black'" font-size="72">.</text>
<text transform="matrix(1 0 0 1 129.8286 319.5)" fill="#4E4D4D" font-family="'AvenirLTStd-Black'" font-size="72">evercam</text>
<text transform="matrix(1 0 0 1 405.2245 319.5)" fill="#EB5F53" font-family="'AvenirLTStd-Black'" font-size="72">.</text>
<text transform="matrix(1 0 0 1 424.7366 319.5)" fill="#4E4D4D" font-family="'AvenirLTStd-Black'" font-size="72">io</text>
<text transform="matrix(1 0 0 1 362.5 465.5)" fill="#4E4D4D" font-family="'AvenirLTStd-Black'" font-size="72" letter-spacing="-1">e</text>
<text transform="matrix(1 0 0 1 400.228 465.5)" fill="#EB5F53" font-family="'AvenirLTStd-Black'" font-size="72" letter-spacing="-1">.</text>
<text transform="matrix(1 0 0 1 121.8286 554.5)" fill="#4E4D4D" font-family="'AvenirLTStd-Black'" font-size="72">evercam</text>
<text transform="matrix(1 0 0 1 397.2245 554.5)" fill="#EB5F53" font-family="'AvenirLTStd-Black'" font-size="72">.</text>
<text transform="matrix(1 0 0 1 416.7365 554.5)" fill="#4E4D4D" font-family="'AvenirLTStd-Black'" font-size="72">io</text>
<text transform="matrix(1 0 0 1 167.4996 586.5)" fill="#989797" font-family="'MyriadPro-Regular'" font-size="27">programmable cameras</text>
</svg>
