<?xml version="1.0" encoding="utf-8"?>
<!-- Generator: Adobe Illustrator 17.0.1, SVG Export Plug-In . SVG Version: 6.00 Build 0)  -->
<!DOCTYPE svg PUBLIC "-//W3C//DTD SVG 1.1//EN" "http://www.w3.org/Graphics/SVG/1.1/DTD/svg11.dtd">
<svg version="1.1" id="Layer_1" xmlns="http://www.w3.org/2000/svg" xmlns:xlink="http://www.w3.org/1999/xlink" x="0px" y="0px"
	 width="263px" height="215px" viewBox="0 0 263 215" enable-background="new 0 0 263 215" xml:space="preserve">
<g>
	<path fill="none" stroke="#BDD3E5" stroke-width="7" stroke-miterlimit="10" d="M2016.476-271.513v-16.485
		c0-2.264,1.865-4.105,4.167-4.105h246.928c2.301,0,4.167,1.836,4.167,4.105v197.65c0,2.269-1.869,4.105-4.167,4.105h-246.928
		c-2.306,0-4.167-1.836-4.167-4.105V-217.99"/>
</g>
<path fill="none" stroke="#BDD3E5" stroke-width="7" stroke-miterlimit="10" d="M2104.357-259.054
	c11.721-6.702,25.287-10.528,39.748-10.528c44.347,0,80.295,36,80.295,80.409s-35.948,80.409-80.295,80.409
	c-44.344,0-80.292-36-80.292-80.409c0-17.661,5.683-33.99,15.319-47.254"/>
<polyline fill="none" stroke="#BDD3E5" stroke-width="7" stroke-miterlimit="10" points="2154.2,-181.545 2187.975,-233.162 
	2151.749,-209.618 "/>
<polyline fill="none" stroke="#BDD3E5" stroke-width="7" stroke-miterlimit="10" points="2135.836,-168.529 2102.596,-144.972 
	2136.357,-199.611 "/>
<ellipse fill="none" stroke="#BDD3E5" stroke-width="7" stroke-miterlimit="10" cx="2145.218" cy="-190.374" rx="11.555" ry="11.47"/>
<path fill="none" stroke="#BDD3E5" stroke-width="7" stroke-miterlimit="10" d="M2310.513,78.941h7.295
	c2.685,0,4.864,2.179,4.864,4.864v80.249c0,2.685-2.179,4.864-4.864,4.864h-141.043c-2.685,0-4.864-2.179-4.864-4.864V83.804
	c0-2.685,2.179-4.864,4.864-4.864h113.99"/>
<polyline fill="none" stroke="#BDD3E5" stroke-width="7" stroke-miterlimit="10" points="2200.98,110.403 2200.98,88.668 
	2298.252,88.668 2298.252,159.292 2200.98,159.292 2200.98,140.193 "/>
<path fill="none" stroke="#BDD3E5" stroke-width="7" stroke-miterlimit="10" d="M2182.112,133.413
	c-3.803-3.803-4.105-9.664-0.674-13.093c3.428-3.429,9.29-3.127,13.093,0.676"/>
<line fill="none" stroke="#BDD3E5" stroke-width="7" stroke-miterlimit="10" x1="2308.283" y1="115.418" x2="2308.283" y2="134.67"/>
<path fill="none" stroke="#BDD3E5" stroke-width="7" stroke-miterlimit="10" d="M2153.84,42.477v118.55
	c0,3.356-2.724,6.079-6.08,6.079h-124.629c-3.356,0-6.079-2.724-6.079-6.079V-15.278c0-3.356,2.724-6.079,6.079-6.079h124.629
	c3.356,0,6.08,2.724,6.08,6.079"/>
<path fill="none" stroke="#BDD3E5" stroke-width="7" stroke-miterlimit="10" d="M2062.648,133.669h-21.464
	c-3.255,0-5.894-2.724-5.894-6.079V-0.08"/>
<path fill="none" stroke="#BDD3E5" stroke-width="7" stroke-miterlimit="10" d="M2135.601-0.08v127.669
	c0,3.356-2.638,6.079-5.894,6.079h-20.956"/>
<path fill="none" stroke="#BDD3E5" stroke-width="7" stroke-miterlimit="10" d="M2035.29,133.669V6c0-3.356,2.638-6.079,5.894-6.079
	h88.523c3.255,0,5.894,2.724,5.894,6.079v127.669"/>
<path fill="none" stroke="#BDD3E5" stroke-width="7" stroke-miterlimit="10" d="M2097.301,154.342
	c-4.754,4.754-12.08,5.131-16.366,0.842c-4.286-4.286-3.909-11.612,0.845-16.366"/>
<circle fill="none" stroke="#BDD3E5" stroke-width="7" stroke-miterlimit="10" cx="1935.665" cy="-555.654" r="197.998"/>
<circle fill="none" stroke="#BDD3E5" stroke-width="7" stroke-miterlimit="10" cx="1481.729" cy="-555.654" r="197.998"/>
<path fill="none" stroke="#BDD3E5" stroke-width="6" stroke-miterlimit="10" d="M967.731,111.11h7.949c2.925,0,5.3,2.374,5.3,5.3
	v87.442c0,2.925-2.374,5.3-5.3,5.3H821.995c-2.925,0-5.3-2.374-5.3-5.3v-87.442c0-2.925,2.374-5.3,5.3-5.3h124.208"/>
<polyline fill="none" stroke="#BDD3E5" stroke-width="6" stroke-miterlimit="10" points="848.381,145.392 848.381,121.709 
	954.371,121.709 954.371,198.663 848.381,198.663 848.381,177.852 "/>
<path fill="none" stroke="#BDD3E5" stroke-width="6" stroke-miterlimit="10" d="M827.821,170.465
	c-4.144-4.144-4.473-10.53-0.734-14.266c3.736-3.736,10.122-3.408,14.266,0.737"/>
<line fill="none" stroke="#BDD3E5" stroke-width="6" stroke-miterlimit="10" x1="965.302" y1="150.856" x2="965.302" y2="171.834"/>
<path fill="none" stroke="#BDD3E5" stroke-width="6" stroke-miterlimit="10" d="M805.293,74.646v129.176
	c0,3.657-2.968,6.624-6.624,6.624h-135.8c-3.657,0-6.624-2.968-6.624-6.624V11.714c0-3.657,2.968-6.624,6.624-6.624h135.8
	c3.657,0,6.624,2.968,6.624,6.624"/>
<path fill="none" stroke="#BDD3E5" stroke-width="6" stroke-miterlimit="10" d="M705.927,174.012h-23.387
	c-3.547,0-6.422-2.968-6.422-6.624V28.275"/>
<path fill="none" stroke="#BDD3E5" stroke-width="6" stroke-miterlimit="10" d="M785.419,28.275v139.113
	c0,3.657-2.875,6.624-6.422,6.624h-22.834"/>
<path fill="none" stroke="#BDD3E5" stroke-width="6" stroke-miterlimit="10" d="M676.117,174.012V34.9
	c0-3.657,2.875-6.624,6.422-6.624h96.458c3.547,0,6.422,2.968,6.422,6.624v139.113"/>
<path fill="none" stroke="#BDD3E5" stroke-width="6" stroke-miterlimit="10" d="M743.686,196.539
	c-5.18,5.18-13.163,5.591-17.833,0.918c-4.67-4.67-4.26-12.653,0.921-17.833"/>
<g>
	<path fill="none" stroke="#BDD3E5" stroke-width="6" stroke-miterlimit="10" d="M4.169,24.991V8.506
		c0-2.264,1.865-4.105,4.166-4.105h246.928c2.301,0,4.166,1.836,4.166,4.105v197.65c0,2.269-1.869,4.105-4.166,4.105H8.335
		c-2.306,0-4.166-1.836-4.166-4.105V78.514"/>
</g>
<path fill="none" stroke="#BDD3E5" stroke-width="6" stroke-miterlimit="10" d="M93.05,38.263
	c11.721-6.702,25.287-10.528,39.748-10.528c44.347,0,80.295,36,80.295,80.409s-35.948,80.409-80.295,80.409
	c-44.344,0-80.292-36-80.292-80.409c0-17.661,5.683-33.99,15.319-47.254"/>
<polyline fill="none" stroke="#BDD3E5" stroke-width="6" stroke-miterlimit="10" points="142.893,115.772 176.667,64.155 
	140.442,87.699 "/>
<polyline fill="none" stroke="#BDD3E5" stroke-width="6" stroke-miterlimit="10" points="124.529,128.788 91.289,152.345 
	125.05,97.706 "/>
<ellipse fill="none" stroke="#BDD3E5" stroke-width="6" stroke-miterlimit="10" cx="133.911" cy="106.943" rx="11.555" ry="11.47"/>
</svg>
