<?xml version="1.0" encoding="utf-8"?>
<!-- Generator: Adobe Illustrator 17.0.1, SVG Export Plug-In . SVG Version: 6.00 Build 0)  -->
<!DOCTYPE svg PUBLIC "-//W3C//DTD SVG 1.1//EN" "http://www.w3.org/Graphics/SVG/1.1/DTD/svg11.dtd">
<svg version="1.1" id="Layer_1" xmlns="http://www.w3.org/2000/svg" xmlns:xlink="http://www.w3.org/1999/xlink" x="0px" y="0px"
	 width="81.833px" height="68px" viewBox="0 0 81.833 68" enable-background="new 0 0 81.833 68" xml:space="preserve">
<g>
	<path fill="none" stroke="#BDD3E5" stroke-width="2" stroke-miterlimit="10" d="M2.376,9.354V4.358
		c0-0.686,0.565-1.244,1.263-1.244h74.827c0.697,0,1.263,0.556,1.263,1.244v59.894c0,0.687-0.566,1.244-1.263,1.244H3.638
		c-0.699,0-1.263-0.556-1.263-1.244V25.573"/>
</g>
<path fill="none" stroke="#BDD3E5" stroke-width="2" stroke-miterlimit="10" d="M29.006,13.129c3.552-2.031,7.663-3.19,12.045-3.19
	c13.438,0,24.332,10.909,24.332,24.366S54.49,58.671,41.051,58.671c-13.438,0-24.331-10.909-24.331-24.366
	c0-5.352,1.722-10.3,4.642-14.32"/>
<polyline fill="none" stroke="#BDD3E5" stroke-width="2" stroke-miterlimit="10" points="44.11,36.617 54.345,20.975 43.367,28.11 
	"/>
<polyline fill="none" stroke="#BDD3E5" stroke-width="2" stroke-miterlimit="10" points="38.545,40.561 28.473,47.699 
	38.703,31.142 "/>
<ellipse fill="none" stroke="#BDD3E5" stroke-width="2" stroke-miterlimit="10" cx="41.388" cy="33.941" rx="3.502" ry="3.476"/>
</svg>
