<?xml version="1.0" encoding="utf-8"?>
<!-- Generator: Adobe Illustrator 17.0.1, SVG Export Plug-In . SVG Version: 6.00 Build 0)  -->
<!DOCTYPE svg PUBLIC "-//W3C//DTD SVG 1.1//EN" "http://www.w3.org/Graphics/SVG/1.1/DTD/svg11.dtd">
<svg version="1.1" id="Layer_1" xmlns="http://www.w3.org/2000/svg" xmlns:xlink="http://www.w3.org/1999/xlink" x="0px" y="0px"
	 width="400.48px" height="398.98px" viewBox="0 0 400.48 398.98" enable-background="new 0 0 400.48 398.98" xml:space="preserve">
<g>
	<path fill="none" stroke="#BDD3E5" stroke-width="7" stroke-miterlimit="10" d="M2153.301-369.581v-16.485
		c0-2.264,1.865-4.105,4.167-4.105h246.928c2.301,0,4.166,1.836,4.166,4.105v197.65c0,2.269-1.869,4.105-4.166,4.105h-246.928
		c-2.306,0-4.167-1.836-4.167-4.105v-127.641"/>
</g>
<path fill="none" stroke="#BDD3E5" stroke-width="7" stroke-miterlimit="10" d="M2241.182-357.122
	c11.721-6.702,25.287-10.528,39.748-10.528c44.347,0,80.295,36,80.295,80.409s-35.948,80.409-80.295,80.409
	c-44.344,0-80.292-36-80.292-80.409c0-17.661,5.683-33.99,15.319-47.254"/>
<polyline fill="none" stroke="#BDD3E5" stroke-width="7" stroke-miterlimit="10" points="2291.025,-279.613 2324.799,-331.23 
	2288.573,-307.686 "/>
<polyline fill="none" stroke="#BDD3E5" stroke-width="7" stroke-miterlimit="10" points="2272.661,-266.597 2239.421,-243.04 
	2273.182,-297.679 "/>
<ellipse fill="none" stroke="#BDD3E5" stroke-width="7" stroke-miterlimit="10" cx="2282.042" cy="-288.443" rx="11.555" ry="11.47"/>
<path fill="none" stroke="#BDD3E5" stroke-width="7" stroke-miterlimit="10" d="M2447.337-19.127h7.295
	c2.685,0,4.864,2.179,4.864,4.864v80.249c0,2.685-2.179,4.864-4.864,4.864h-141.044c-2.685,0-4.864-2.179-4.864-4.864v-80.249
	c0-2.685,2.179-4.864,4.864-4.864h113.99"/>
<polyline fill="none" stroke="#BDD3E5" stroke-width="7" stroke-miterlimit="10" points="2337.805,12.335 2337.805,-9.4 
	2435.076,-9.4 2435.076,61.224 2337.805,61.224 2337.805,42.124 "/>
<path fill="none" stroke="#BDD3E5" stroke-width="7" stroke-miterlimit="10" d="M2318.937,35.345
	c-3.803-3.803-4.105-9.664-0.674-13.093c3.429-3.429,9.29-3.127,13.093,0.676"/>
<line fill="none" stroke="#BDD3E5" stroke-width="7" stroke-miterlimit="10" x1="2445.107" y1="17.349" x2="2445.107" y2="36.602"/>
<path fill="none" stroke="#BDD3E5" stroke-width="7" stroke-miterlimit="10" d="M2290.664-55.591v118.55
	c0,3.356-2.724,6.079-6.08,6.079h-124.629c-3.356,0-6.079-2.724-6.079-6.079v-176.305c0-3.356,2.724-6.079,6.079-6.079h124.629
	c3.356,0,6.08,2.724,6.08,6.079"/>
<path fill="none" stroke="#BDD3E5" stroke-width="7" stroke-miterlimit="10" d="M2199.472,35.601h-21.463
	c-3.256,0-5.894-2.724-5.894-6.079V-98.148"/>
<path fill="none" stroke="#BDD3E5" stroke-width="7" stroke-miterlimit="10" d="M2272.426-98.148V29.521
	c0,3.356-2.638,6.079-5.894,6.079h-20.956"/>
<path fill="none" stroke="#BDD3E5" stroke-width="7" stroke-miterlimit="10" d="M2172.115,35.601V-92.068
	c0-3.356,2.638-6.079,5.894-6.079h88.523c3.255,0,5.894,2.724,5.894,6.079V35.601"/>
<path fill="none" stroke="#BDD3E5" stroke-width="7" stroke-miterlimit="10" d="M2234.125,56.274
	c-4.754,4.754-12.08,5.131-16.366,0.842c-4.286-4.286-3.909-11.612,0.845-16.366"/>
<circle fill="none" stroke="#BDD3E5" stroke-width="7" stroke-miterlimit="10" cx="2072.489" cy="-653.722" r="197.998"/>
<circle fill="none" stroke="#BDD3E5" stroke-width="7" stroke-miterlimit="10" cx="1618.553" cy="-653.722" r="197.998"/>
<path fill="none" stroke="#BDD3E5" stroke-width="6" stroke-miterlimit="10" d="M1017.003,322.144h7.108
	c2.616,0,4.739,2.123,4.739,4.738v78.185c0,2.616-2.123,4.738-4.739,4.738H886.694c-2.616,0-4.738-2.123-4.738-4.738v-78.185
	c0-2.616,2.123-4.738,4.738-4.738h111.058"/>
<polyline fill="none" stroke="#BDD3E5" stroke-width="6" stroke-miterlimit="10" points="910.287,352.797 910.287,331.621 
	1005.057,331.621 1005.057,400.428 910.287,400.428 910.287,381.82 "/>
<path fill="none" stroke="#BDD3E5" stroke-width="6" stroke-miterlimit="10" d="M891.904,375.215
	c-3.705-3.705-3.999-9.415-0.656-12.756c3.34-3.341,9.051-3.047,12.756,0.659"/>
<line fill="none" stroke="#BDD3E5" stroke-width="6" stroke-miterlimit="10" x1="1014.83" y1="357.682" x2="1014.83" y2="376.44"/>
<path fill="none" stroke="#BDD3E5" stroke-width="6" stroke-miterlimit="10" d="M778.231,169.856v115.5
	c0,3.27-2.654,5.923-5.923,5.923H650.884c-3.27,0-5.923-2.654-5.923-5.923v-171.77c0-3.27,2.654-5.923,5.923-5.923h121.424
	c3.27,0,5.923,2.654,5.923,5.923"/>
<path fill="none" stroke="#BDD3E5" stroke-width="6" stroke-miterlimit="10" d="M689.385,258.703h-20.911
	c-3.172,0-5.743-2.654-5.743-5.923V128.395"/>
<path fill="none" stroke="#BDD3E5" stroke-width="6" stroke-miterlimit="10" d="M863.827,247.185V371.57
	c0,3.27-2.571,5.923-5.743,5.923h-20.417"/>
<path fill="none" stroke="#BDD3E5" stroke-width="6" stroke-miterlimit="10" d="M662.731,258.703V134.318
	c0-3.27,2.571-5.923,5.743-5.923h86.246c3.172,0,5.743,2.654,5.743,5.923v124.385"/>
<path fill="none" stroke="#BDD3E5" stroke-width="6" stroke-miterlimit="10" d="M723.146,278.844
	c-4.632,4.632-11.769,4.999-15.945,0.821c-4.176-4.176-3.809-11.313,0.823-15.945"/>
<g>
	<path fill="none" stroke="#BDD3E5" stroke-width="6" stroke-miterlimit="10" d="M74.161,117.15v-16.485
		c0-2.264,1.865-4.105,4.166-4.105h246.928c2.301,0,4.166,1.836,4.166,4.105v197.65c0,2.269-1.869,4.105-4.166,4.105H78.327
		c-2.306,0-4.166-1.836-4.166-4.105V170.674"/>
</g>
<path fill="none" stroke="#BDD3E5" stroke-width="6" stroke-miterlimit="10" d="M157.968,122.447
	c12.923-7.389,27.879-11.607,43.822-11.607c48.892,0,88.525,39.69,88.525,88.651s-39.633,88.651-88.525,88.651
	c-48.889,0-88.522-39.69-88.522-88.651c0-19.472,6.266-37.473,16.889-52.098"/>
<polyline fill="none" stroke="#BDD3E5" stroke-width="6" stroke-miterlimit="10" points="212.92,207.901 250.156,150.992 
	210.217,176.95 "/>
<polyline fill="none" stroke="#BDD3E5" stroke-width="6" stroke-miterlimit="10" points="192.673,222.25 156.026,248.222 
	193.248,187.982 "/>
<ellipse fill="none" stroke="#BDD3E5" stroke-width="6" stroke-miterlimit="10" cx="203.017" cy="198.166" rx="12.74" ry="12.646"/>
<rect x="-549.675" y="472.413" fill="none" stroke="#BDD3E5" stroke-width="6" stroke-miterlimit="10" width="0" height="0"/>
<circle fill="none" stroke="#BDD3E5" stroke-width="6" stroke-miterlimit="10" cx="-263.712" cy="193.549" r="189"/>
<circle fill="none" stroke="#BDD3E5" stroke-width="6" stroke-miterlimit="10" cx="201.792" cy="202.873" r="189"/>
</svg>
