<?xml version="1.0" encoding="utf-8"?>
<!-- Generator: Adobe Illustrator 16.0.0, SVG Export Plug-In . SVG Version: 6.00 Build 0)  -->
<!DOCTYPE svg PUBLIC "-//W3C//DTD SVG 1.1//EN" "http://www.w3.org/Graphics/SVG/1.1/DTD/svg11.dtd">
<svg version="1.1" id="Layer_1" xmlns="http://www.w3.org/2000/svg" xmlns:xlink="http://www.w3.org/1999/xlink" x="0px" y="0px"
	 width="512px" height="512px" viewBox="0 0 512 512" enable-background="new 0 0 512 512" xml:space="preserve">
<circle fill="#EFEEEE" cx="256" cy="256" r="256"/>
<path fill="#9E3128" d="M250.125,446.75c108.51,0,196.5-87.99,196.5-196.5c0-108.513-87.99-196.5-196.5-196.5
	c-108.513,0-196.5,87.987-196.5,196.5C53.625,358.76,141.612,446.75,250.125,446.75z M250.125,90.594
	c88.16,0,159.656,71.484,159.656,159.656c0,88.16-71.496,159.656-159.656,159.656c-88.172,0-159.656-71.496-159.656-159.656
	C90.469,162.078,161.953,90.594,250.125,90.594z M151.875,176.562c0-13.556,11.007-24.562,24.562-24.562S201,163.007,201,176.562
	s-11.007,24.562-24.562,24.562S151.875,190.118,151.875,176.562z M299.25,176.562c0-13.556,10.976-24.562,24.562-24.562
	s24.562,11.007,24.562,24.562s-10.976,24.562-24.562,24.562S299.25,190.118,299.25,176.562z M323.856,294.502l31.617,18.92
	c-21.484,35.724-60.631,59.641-105.349,59.641c-44.715,0-83.842-23.917-105.317-59.641l31.586-18.92
	c15.045,25.012,42.428,41.717,73.731,41.717C281.398,336.219,308.811,319.514,323.856,294.502z"/>
</svg>
