<?xml version="1.0" encoding="utf-8"?>
<!-- Generator: Adobe Illustrator 17.0.1, SVG Export Plug-In . SVG Version: 6.00 Build 0)  -->
<!DOCTYPE svg PUBLIC "-//W3C//DTD SVG 1.1//EN" "http://www.w3.org/Graphics/SVG/1.1/DTD/svg11.dtd">
<svg version="1.1" id="Layer_1" xmlns="http://www.w3.org/2000/svg" xmlns:xlink="http://www.w3.org/1999/xlink" x="0px" y="0px"
	 width="512px" height="512px" viewBox="0 0 512 512" enable-background="new 0 0 512 512" xml:space="preserve">
<circle fill="#EFEEEE" cx="256" cy="256" r="256"/>
<path fill="#9E3128" d="M420.761,294.38c-20.987-36.349-8.366-82.931,28.184-104.097L409.639,122.2
	c-11.23,6.584-24.288,10.359-38.221,10.359c-42.006,0-76.058-34.276-76.058-76.559l-78.616,0c0.104,13.051-3.154,26.282-10.14,38.38
	c-20.986,36.35-67.639,48.712-104.243,27.64l-39.306,68.083c11.316,6.434,21.113,15.855,28.08,27.921
	c20.952,36.292,8.403,82.781-28.011,103.994l39.307,68.083c11.191-6.522,24.186-10.255,38.047-10.255
	c41.873,0,75.838,34.059,76.055,76.155h78.615c-0.034-12.92,3.231-26.004,10.143-37.976c20.952-36.291,67.491-48.67,104.068-27.739
	l39.307-68.082C437.423,315.771,427.692,306.384,420.761,294.38z M256,336.99c-44.73,0-80.991-36.259-80.991-80.99
	c0-44.73,36.26-80.99,80.991-80.99c44.73,0,80.989,36.26,80.989,80.99C336.988,300.73,300.729,336.99,256,336.99z"/>
</svg>
