<?xml version="1.0" encoding="utf-8"?>
<!-- Generator: Adobe Illustrator 16.0.0, SVG Export Plug-In . SVG Version: 6.00 Build 0)  -->
<!DOCTYPE svg PUBLIC "-//W3C//DTD SVG 1.1//EN" "http://www.w3.org/Graphics/SVG/1.1/DTD/svg11.dtd">
<svg version="1.1" id="Layer_1" xmlns="http://www.w3.org/2000/svg" xmlns:xlink="http://www.w3.org/1999/xlink" x="0px" y="0px"
	 width="512px" height="512px" viewBox="0 0 512 512" enable-background="new 0 0 512 512" xml:space="preserve">
<circle fill="#EFEEEE" cx="256" cy="256" r="256"/>
<path fill="#9E3128" d="M256,476c121.486,0,220-98.514,220-220c0-121.49-98.514-220-220-220C134.51,36,36,134.51,36,256
	C36,377.486,134.51,476,256,476z M256,77.25c98.703,0,178.75,80.033,178.75,178.75c0,98.703-80.047,178.75-178.75,178.75
	c-98.717,0-178.75-80.047-178.75-178.75C77.25,157.283,157.283,77.25,256,77.25z M146,173.5c0-15.177,12.323-27.5,27.5-27.5
	s27.5,12.323,27.5,27.5S188.677,201,173.5,201S146,188.677,146,173.5z M311,173.5c0-15.177,12.288-27.5,27.5-27.5
	s27.5,12.323,27.5,27.5S353.712,201,338.5,201S311,188.677,311,173.5z M338.549,305.544l35.398,21.183
	C349.894,366.723,306.065,393.5,256,393.5c-50.063,0-93.869-26.777-117.912-66.773l35.363-21.183
	c16.845,28.003,47.502,46.706,82.549,46.706C291.013,352.25,321.704,333.547,338.549,305.544z"/>
</svg>
