<?xml version="1.0" encoding="utf-8"?>
<!-- Generator: Adobe Illustrator 17.0.1, SVG Export Plug-In . SVG Version: 6.00 Build 0)  -->
<!DOCTYPE svg PUBLIC "-//W3C//DTD SVG 1.1//EN" "http://www.w3.org/Graphics/SVG/1.1/DTD/svg11.dtd">
<svg version="1.1" id="Layer_1" xmlns="http://www.w3.org/2000/svg" xmlns:xlink="http://www.w3.org/1999/xlink" x="0px" y="0px"
	 width="512px" height="512px" viewBox="0 0 512 512" enable-background="new 0 0 512 512" xml:space="preserve">
<circle fill="#EFEEEE" cx="256" cy="256" r="256"/>
<path fill="#9E3128" d="M208.581,333.509l14.882-21.334l-16.307-16.699l-20.835,15.238c-3.864-2.212-8.001-3.976-12.348-5.237
	l-4.21-25.861h-23.063l-4.209,25.862c-4.347,1.261-8.484,3.025-12.348,5.237l-20.835-15.239l-16.308,16.699l14.882,21.334
	c-2.16,3.956-3.882,8.194-5.114,12.644l-25.256,4.311v23.616l25.256,4.311c1.232,4.45,2.954,8.688,5.114,12.644l-14.882,21.334
	l16.307,16.699l20.835-15.238c3.864,2.212,8.001,3.976,12.348,5.237l4.21,25.861h23.063l4.209-25.862
	c4.347-1.261,8.484-3.025,12.348-5.237l20.835,15.238l16.307-16.699l-14.882-21.334c2.16-3.956,3.882-8.194,5.114-12.644
	l25.256-4.31v-23.616l-25.256-4.311C212.464,341.703,210.741,337.466,208.581,333.509z M158.232,385.888
	c-12.738,0-23.063-10.573-23.063-23.616c0-13.043,10.325-23.616,23.063-23.616s23.063,10.573,23.063,23.616
	C181.295,375.315,170.97,385.888,158.232,385.888z M446.513,208.768v-23.616l-24.281-4.52c-0.448-2.969-1.021-5.896-1.702-8.779
	l20.741-13.69l-8.826-21.818l-24.123,5.339c-1.519-2.55-3.144-5.026-4.862-7.428l14.056-20.79l-16.308-16.699l-20.303,14.393
	c-2.347-1.759-4.764-3.423-7.254-4.979l5.214-24.702l-21.307-9.038l-13.369,21.239c-2.815-0.698-5.673-1.285-8.573-1.743
	l-4.415-24.864h-23.063l-4.415,24.864c-2.899,0.458-5.757,1.045-8.573,1.743L281.782,72.44l-21.307,9.038l5.214,24.702
	c-2.49,1.556-4.908,3.221-7.254,4.979l-20.303-14.393l-16.307,16.699l14.056,20.79c-1.717,2.402-3.343,4.878-4.863,7.428
	l-24.123-5.339l-8.826,21.818l20.741,13.69c-0.682,2.883-1.255,5.809-1.702,8.779l-24.282,4.521v23.616l24.281,4.52
	c0.448,2.969,1.021,5.896,1.702,8.779l-20.741,13.69l8.826,21.818l24.123-5.339c1.519,2.55,3.145,5.025,4.863,7.428l-14.056,20.79
	l16.307,16.699l20.303-14.393c2.346,1.759,4.764,3.423,7.254,4.979l-5.214,24.702l21.307,9.038l13.37-21.239
	c2.814,0.698,5.673,1.285,8.572,1.743l4.415,24.865h23.063l4.415-24.864c2.899-0.458,5.757-1.045,8.573-1.743l13.369,21.239
	l21.307-9.038l-5.214-24.702c2.49-1.556,4.908-3.22,7.254-4.979l20.303,14.393l16.308-16.699l-14.056-20.79
	c1.717-2.403,3.343-4.878,4.862-7.428l24.123,5.339l8.826-21.819l-20.741-13.69c0.682-2.883,1.255-5.809,1.702-8.779
	L446.513,208.768z M319.67,248.325c-27.703,0-50.161-22.997-50.161-51.365s22.457-51.365,50.161-51.365s50.161,22.997,50.161,51.365
	S347.374,248.325,319.67,248.325z"/>
</svg>
