<?xml version="1.0" encoding="utf-8"?>
<!-- Generator: Adobe Illustrator 17.0.1, SVG Export Plug-In . SVG Version: 6.00 Build 0)  -->
<!DOCTYPE svg PUBLIC "-//W3C//DTD SVG 1.1//EN" "http://www.w3.org/Graphics/SVG/1.1/DTD/svg11.dtd">
<svg version="1.1" id="Layer_1" xmlns="http://www.w3.org/2000/svg" xmlns:xlink="http://www.w3.org/1999/xlink" x="0px" y="0px"
	 width="512px" height="512px" viewBox="0 0 512 512" enable-background="new 0 0 512 512" xml:space="preserve">
<circle fill="#EFEEEE" cx="256" cy="256" r="256"/>
<path fill="#9E3128" d="M-208.438,481.688l-95.938,95.938h-57.563l-57.563,76.75c0,0,60.985-16.985,96.557-9.019L-419.5,769.5
	l126.488-98.379c17.64,40.37-11.363,98.379-11.363,98.379l76.75-57.563v-57.563l95.938-95.938L-112.5,462.5L-208.438,481.688z"/>
<path fill="#9E3128" d="M256,456c110.457,0,200-89.543,200-200S366.457,56,256,56S56,145.543,56,256S145.543,456,256,456z M256,93.5
	c89.746,0,162.5,72.754,162.5,162.5S345.746,418.5,256,418.5S93.5,345.746,93.5,256S166.254,93.5,256,93.5z M156,181
	c0-13.807,11.193-25,25-25s25,11.193,25,25s-11.193,25-25,25S156,194.807,156,181z M306,181c0-13.807,11.193-25,25-25
	s25,11.193,25,25s-11.193,25-25,25S306,194.807,306,181z M331.038,301.023l32.159,19.295C341.337,356.674,301.512,381,256,381
	s-85.337-24.326-107.198-60.681l32.159-19.295C196.264,326.472,224.142,343.5,256,343.5S315.736,326.472,331.038,301.023z"/>
</svg>
