<?xml version="1.0" encoding="utf-8"?>
<!-- Generator: Adobe Illustrator 16.0.0, SVG Export Plug-In . SVG Version: 6.00 Build 0)  -->
<!DOCTYPE svg PUBLIC "-//W3C//DTD SVG 1.1//EN" "http://www.w3.org/Graphics/SVG/1.1/DTD/svg11.dtd">
<svg version="1.1" id="Layer_1" xmlns="http://www.w3.org/2000/svg" xmlns:xlink="http://www.w3.org/1999/xlink" x="0px" y="0px"
	 width="146.666px" height="145.916px" viewBox="2848.167 1445.334 146.666 145.916"
	 enable-background="new 2848.167 1445.334 146.666 145.916" xml:space="preserve">
<circle fill="none" stroke="#BDD4E6" stroke-width="3" stroke-miterlimit="10" cx="2921.536" cy="1518.443" r="71"/>
<path fill="none" stroke="#BDD4E6" stroke-width="3" stroke-miterlimit="10" d="M2885.283,1524.995
	c5.389,0,26.696,0.049,38.089,0.049c16.471,0,20.031-5.96,20.031-13.667c0-6.231-1.73-11.504-12.079-13.304
	c-0.988-6.779-5.709-12.225-12.654-12.225c-1.895,0-3.701,0.387-5.344,1.089c-2.998-3.082-8.149-4.284-12.747-4.284
	c-8.097,0-14.839,5.45-16.255,13.259c-0.412-0.035-0.827-0.063-1.249-0.063c-7.323,0-13.258,6.033-13.258,13.475
	c0,2.486,0.279,5.062,1.136,7.389"/>
<path fill="none" stroke="#BDD4E6" stroke-width="3" stroke-miterlimit="10" d="M2950.034,1515.232
	c16.511,0,19.533-5.96,19.533-13.667c0-6.231-1.737-11.504-12.109-13.304c-0.99-6.779-5.724-12.225-12.683-12.225
	c-1.902,0-3.711,0.387-5.361,1.089c-3.004-3.082-8.166-4.284-12.776-4.284c-5.048,0-9.572,2.109-12.611,5.584"/>
<path fill="none" stroke="#BDD4E6" stroke-width="2" stroke-miterlimit="10" d="M2913.354,1548.441c0,4.011-3.263,7.264-7.286,7.264
	s-7.284-3.253-7.284-7.264c0-4.012,3.261-7.263,7.284-7.263"/>
<path fill="none" stroke="#BDD4E6" stroke-width="2" stroke-miterlimit="10" d="M2895.563,1542.561
	c-0.379,0.71-0.69,1.462-0.927,2.245h-3.627c-0.284,0-0.515,0.246-0.515,0.548v6.198c0,0.302,0.23,0.546,0.515,0.546h3.645
	c0.24,0.776,0.553,1.521,0.931,2.225l-2.584,2.584c-0.2,0.2-0.19,0.536,0.022,0.75l4.383,4.383c0.215,0.213,0.55,0.223,0.751,0.022
	l2.602-2.602c0.698,0.37,1.436,0.676,2.205,0.909v3.684c0,0.284,0.246,0.514,0.548,0.514h6.197c0.303,0,0.547-0.229,0.547-0.514
	v-3.696c0.765-0.234,1.498-0.541,2.192-0.911l2.616,2.616c0.2,0.2,0.536,0.19,0.75-0.022l4.383-4.383
	c0.213-0.215,0.223-0.55,0.022-0.75l-2.612-2.613c0.371-0.695,0.68-1.429,0.916-2.195h3.688c0.284,0,0.514-0.244,0.514-0.546v-6.198
	c0-0.302-0.229-0.548-0.514-0.548h-3.671c-0.233-0.772-0.54-1.515-0.911-2.217l2.59-2.591c0.202-0.201,0.191-0.535-0.022-0.75
	l-4.383-4.383c-0.214-0.213-0.55-0.224-0.75-0.022l-2.573,2.572c-0.707-0.379-1.454-0.693-2.235-0.934v-3.63
	c0-0.284-0.244-0.515-0.547-0.515h-6.197c-0.302,0-0.548,0.229-0.548,0.515v3.618c-0.785,0.238-1.537,0.551-2.248,0.932l-2.56-2.56
	c-0.201-0.2-0.535-0.19-0.75,0.023l-4.383,4.383c-0.213,0.213-0.223,0.549-0.022,0.75"/>
<path fill="none" stroke="#BDD4E6" stroke-width="2" stroke-miterlimit="10" d="M2943.23,1561.59c0,2.622-2.133,4.748-4.763,4.748
	s-4.762-2.126-4.762-4.748c0-2.621,2.132-4.746,4.762-4.746"/>
<path fill="none" stroke="#BDD4E6" stroke-width="2" stroke-miterlimit="10" d="M2931.601,1557.746
	c-0.247,0.464-0.451,0.955-0.604,1.468h-2.371c-0.186,0-0.337,0.161-0.337,0.358v4.051c0,0.198,0.151,0.357,0.337,0.357h2.383
	c0.155,0.507,0.359,0.993,0.606,1.454l-1.688,1.689c-0.131,0.131-0.124,0.351,0.016,0.489l2.864,2.865
	c0.141,0.139,0.358,0.146,0.491,0.015l1.7-1.701c0.456,0.242,0.938,0.441,1.441,0.595v2.408c0,0.186,0.161,0.336,0.358,0.336h4.05
	c0.198,0,0.358-0.15,0.358-0.336v-2.416c0.499-0.153,0.979-0.354,1.433-0.596l1.711,1.71c0.13,0.131,0.351,0.124,0.489-0.015
	l2.865-2.865c0.139-0.14,0.146-0.358,0.015-0.489l-1.708-1.708c0.242-0.455,0.445-0.935,0.599-1.436h2.411
	c0.187,0,0.336-0.159,0.336-0.357v-4.051c0-0.197-0.149-0.358-0.336-0.358h-2.399c-0.151-0.505-0.353-0.99-0.595-1.449l1.692-1.693
	c0.133-0.132,0.125-0.35-0.015-0.49l-2.865-2.864c-0.139-0.14-0.359-0.147-0.489-0.015l-1.683,1.681
	c-0.463-0.248-0.951-0.453-1.461-0.61v-2.373c0-0.185-0.16-0.336-0.358-0.336h-4.05c-0.197,0-0.358,0.15-0.358,0.336v2.365
	c-0.514,0.156-1.005,0.36-1.469,0.61l-1.674-1.674c-0.132-0.132-0.35-0.124-0.49,0.016l-2.864,2.864
	c-0.14,0.139-0.146,0.358-0.016,0.49"/>
</svg>
