<?xml version="1.0" encoding="utf-8"?>
<!-- Generator: Adobe Illustrator 17.0.1, SVG Export Plug-In . SVG Version: 6.00 Build 0)  -->
<!DOCTYPE svg PUBLIC "-//W3C//DTD SVG 1.1//EN" "http://www.w3.org/Graphics/SVG/1.1/DTD/svg11.dtd">
<svg version="1.1" id="Layer_1" xmlns="http://www.w3.org/2000/svg" xmlns:xlink="http://www.w3.org/1999/xlink" x="0px" y="0px"
	 width="512px" height="512px" viewBox="0 0 512 512" enable-background="new 0 0 512 512" xml:space="preserve">
<path fill="#9E3128" d="M465.924,305.126C439.061,258.599,455.216,198.974,502,171.882l-50.313-87.146
	c-14.375,8.427-31.088,13.259-48.923,13.259c-53.768,0-97.354-43.873-97.354-97.995L204.781,0
	c0.133,16.705-4.037,33.641-12.979,49.126c-26.862,46.528-86.578,62.351-133.431,35.379L8.059,171.651
	c14.485,8.236,27.025,20.294,35.943,35.739c26.819,46.454,10.756,105.96-35.854,133.112l50.313,87.146
	c14.325-8.348,30.958-13.127,48.7-13.127c53.598,0,97.072,43.596,97.35,97.479h100.627c-0.043-16.537,4.136-33.285,12.983-48.609
	c26.818-46.453,86.388-62.297,133.207-35.506l50.313-87.145C487.251,332.507,474.795,320.491,465.924,305.126z M255.029,359.667
	c-57.254,0-103.668-46.412-103.668-103.667c0-57.254,46.413-103.667,103.668-103.667c57.254,0,103.666,46.413,103.666,103.667
	C358.694,313.255,312.283,359.667,255.029,359.667z"/>
</svg>
