<?xml version="1.0" encoding="utf-8"?>
<!-- Generator: Adobe Illustrator 16.0.0, SVG Export Plug-In . SVG Version: 6.00 Build 0)  -->
<!DOCTYPE svg PUBLIC "-//W3C//DTD SVG 1.1//EN" "http://www.w3.org/Graphics/SVG/1.1/DTD/svg11.dtd">
<svg version="1.1" id="Layer_1" xmlns="http://www.w3.org/2000/svg" xmlns:xlink="http://www.w3.org/1999/xlink" x="0px" y="0px"
	 width="512px" height="512px" viewBox="0 0 512 512" enable-background="new 0 0 512 512" xml:space="preserve">
<path fill="#9E3128" d="M436.526,71.625H69.141c-23.315,0-42.391,19.076-42.391,42.391v254.344
	c0,23.314,19.076,42.391,42.391,42.391h367.386c23.314,0,42.391-19.076,42.391-42.391V114.016
	C478.917,90.701,459.841,71.625,436.526,71.625z M69.141,99.885h367.386c7.658,0,14.13,6.471,14.13,14.13v42.391H55.01v-42.391
	C55.01,106.356,61.481,99.885,69.141,99.885z M436.526,382.489H69.141c-7.66,0-14.13-6.472-14.13-14.13V241.188h395.646v127.172
	C450.656,376.018,444.185,382.489,436.526,382.489z M83.271,297.708h28.26v56.521h-28.26V297.708z M139.792,297.708h28.261v56.521
	h-28.261V297.708z M196.312,297.708h28.26v56.521h-28.26V297.708z"/>
</svg>
