<?xml version="1.0" encoding="utf-8"?>
<!-- Generator: Adobe Illustrator 16.0.0, SVG Export Plug-In . SVG Version: 6.00 Build 0)  -->
<!DOCTYPE svg PUBLIC "-//W3C//DTD SVG 1.1//EN" "http://www.w3.org/Graphics/SVG/1.1/DTD/svg11.dtd">
<svg version="1.1" id="Layer_1" xmlns="http://www.w3.org/2000/svg" xmlns:xlink="http://www.w3.org/1999/xlink" x="0px" y="0px"
	 width="512px" height="512px" viewBox="0 0 512 512" enable-background="new 0 0 512 512" xml:space="preserve">
<path fill="#9E3128" stroke="#000000" stroke-miterlimit="10" d="M460.061,77.996H51.915c-18.83,0-34.053,15.208-34.053,33.995
	v340.184c0,18.758,15.223,34.012,34.053,34.012h408.146c18.729,0,33.996-15.254,33.996-34.012V111.991
	C494.057,93.205,478.789,77.996,460.061,77.996z M180.505,103.54c9.394,0,16.975,7.568,16.975,17.005
	c0,9.378-7.582,16.976-16.975,16.976c-9.394,0-17.02-7.598-17.02-16.976C163.485,111.108,171.111,103.54,180.505,103.54z
	 M128.429,103.54c9.394,0,17.021,7.568,17.021,17.005c0,9.378-7.627,16.976-17.021,16.976c-9.422,0-17.048-7.598-17.048-16.976
	C111.381,111.108,119.007,103.54,128.429,103.54z M77.372,103.54c9.393,0,17.02,7.568,17.02,17.005
	c0,9.378-7.627,16.976-17.02,16.976c-9.364,0-16.976-7.598-16.976-16.976C60.396,111.108,68.007,103.54,77.372,103.54z
	 M460.061,452.175H51.915V163.418h408.146V452.175z M460.061,129.394H221.935v-17.02h238.125V129.394z"/>
<text transform="matrix(1 0 0 1 131.4385 362.834)" fill="#6AA3C6" font-family="'MyriadPro-Bold'" font-size="182.152">{ / }</text>
</svg>
