<?xml version="1.0" encoding="utf-8"?>
<!-- Generator: Adobe Illustrator 16.0.0, SVG Export Plug-In . SVG Version: 6.00 Build 0)  -->
<!DOCTYPE svg PUBLIC "-//W3C//DTD SVG 1.1//EN" "http://www.w3.org/Graphics/SVG/1.1/DTD/svg11.dtd">
<svg version="1.1" id="Layer_1" xmlns="http://www.w3.org/2000/svg" xmlns:xlink="http://www.w3.org/1999/xlink" x="0px" y="0px"
	 width="148px" height="148px" viewBox="2690 1227 148 148" enable-background="new 2690 1227 148 148" xml:space="preserve">
<path fill="none" stroke="#BDD4E6" stroke-width="4" stroke-miterlimit="10" d="M2763.207,1305.016
	c0.429-1.227,0.441-2.213-0.332-2.727c-7.088-4.703-11.625-11.932-11.625-20.039c0-14.18,13.881-25.672,31-25.672
	c17.121,0,31,11.492,31,25.672c0,14.178-13.879,25.672-31,25.672c-2.676,0-20.773,9.246-23.25,8.719"/>
<text transform="matrix(1 0 0 1 2765.167 1288.25)" fill="#BDD4E6" font-family="'MyriadPro-Regular'" font-size="24">&lt;/&gt;</text>
<g>
	<path fill="none" stroke="#BDD4E6" stroke-width="4" stroke-miterlimit="10" d="M2746.42,1343.941
		c2.987-1.444,5.912-3.772,8.486-7.325c10.812,16.354,34.396,6.745,31.912,4.362c-1.068-1.024-9.174,2.089-17.072-6.649
		c-6.967-7.704-6.186-10.686-15.02-10.686c-8.832,0-7.9,2.928-14.752,10.604c-7.819,8.764-13.238,4.306-14.881,6.663
		c-0.576,0.829,1.521,2.612,5.002,3.822"/>
</g>
<circle fill="none" stroke="#BDD4E6" stroke-width="4" stroke-miterlimit="10" cx="2763.893" cy="1301.066" r="71"/>
</svg>
