<?xml version="1.0" encoding="utf-8"?>
<!-- Generator: Adobe Illustrator 17.0.1, SVG Export Plug-In . SVG Version: 6.00 Build 0)  -->
<!DOCTYPE svg PUBLIC "-//W3C//DTD SVG 1.1//EN" "http://www.w3.org/Graphics/SVG/1.1/DTD/svg11.dtd">
<svg version="1.1" id="Layer_1" xmlns="http://www.w3.org/2000/svg" xmlns:xlink="http://www.w3.org/1999/xlink" x="0px" y="0px"
	 width="108.5px" height="70.25px" viewBox="0 0 108.5 70.25" enable-background="new 0 0 108.5 70.25" xml:space="preserve">
<path fill="none" stroke="#BDD3E5" stroke-width="2" stroke-miterlimit="10" d="M100.875,37.301h2.4c0.883,0,1.6,0.717,1.6,1.6v26.4
	c0,0.883-0.717,1.6-1.6,1.6h-46.4c-0.883,0-1.6-0.717-1.6-1.6v-26.4c0-0.883,0.717-1.6,1.6-1.6h37.5"/>
<polyline fill="none" stroke="#BDD3E5" stroke-width="2" stroke-miterlimit="10" points="64.841,47.651 64.841,40.501 
	96.841,40.501 96.841,63.734 64.841,63.734 64.841,57.451 "/>
<path fill="none" stroke="#BDD3E5" stroke-width="2" stroke-miterlimit="10" d="M58.634,55.221c-1.251-1.251-1.35-3.179-0.222-4.307
	c1.128-1.128,3.056-1.029,4.307,0.222"/>
<line fill="none" stroke="#BDD3E5" stroke-width="2" stroke-miterlimit="10" x1="100.141" y1="49.301" x2="100.141" y2="55.634"/>
<path fill="none" stroke="#BDD3E5" stroke-width="2" stroke-miterlimit="10" d="M49.333,25.305v39c0,1.104-0.896,2-2,2h-41
	c-1.104,0-2-0.896-2-2v-58c0-1.104,0.896-2,2-2h41c1.104,0,2,0.896,2,2"/>
<path fill="none" stroke="#BDD3E5" stroke-width="2" stroke-miterlimit="10" d="M19.333,55.305h-7.061c-1.071,0-1.939-0.896-1.939-2
	v-42"/>
<path fill="none" stroke="#BDD3E5" stroke-width="2" stroke-miterlimit="10" d="M43.333,11.305v42c0,1.104-0.868,2-1.939,2H34.5"/>
<path fill="none" stroke="#BDD3E5" stroke-width="2" stroke-miterlimit="10" d="M10.333,55.305v-42c0-1.104,0.868-2,1.939-2h29.122
	c1.071,0,1.939,0.896,1.939,2v42"/>
<path fill="none" stroke="#BDD3E5" stroke-width="2" stroke-miterlimit="10" d="M30.733,62.106
	c-1.564,1.564-3.974,1.688-5.384,0.277c-1.41-1.41-1.286-3.82,0.278-5.384"/>
</svg>
